# This file uses centimeters as units for non-parametric coordinates.

mtllib 20_sided.mtl
g default
v 0.850651 0.000000 -0.525731
v 0.850651 -0.000000 0.525731
v -0.850651 -0.000000 0.525731
v -0.850651 0.000000 -0.525731
v 0.000000 -0.525731 0.850651
v 0.000000 0.525731 0.850651
v 0.000000 0.525731 -0.850651
v 0.000000 -0.525731 -0.850651
v -0.525731 -0.850651 -0.000000
v 0.525731 -0.850651 -0.000000
v 0.525731 0.850651 0.000000
v -0.525731 0.850651 0.000000
vt 0.083217 0.248856
vt 0.217866 0.000000
vt 0.352514 0.248856
vt -0.000000 0.095054
vt 0.435732 0.095054
vt 0.217866 0.497711
vt 0.435732 0.402657
vt -0.000000 0.402657
vt 0.647485 0.751144
vt 0.782134 0.502289
vt 0.916783 0.751144
vt 0.564268 0.597343
vt 1.000000 0.597343
vt 0.782134 1.000000
vt 1.000000 0.904945
vt 0.564268 0.904945
vt 0.423460 1.000000
vt 0.288811 0.751144
vt 0.558108 0.751144
vt 0.423460 0.502289
vt 0.148003 0.502289
vt 0.282651 0.751144
vt 0.013354 0.751144
vt 0.148003 1.000000
vt 0.577069 0.000000
vt 0.711718 0.248856
vt 0.442421 0.248856
vt 0.577069 0.497711
vt 0.718322 0.248856
vt 0.852971 0.000000
vt 0.987619 0.248856
vt 0.852971 0.497711
vn 0.850651 0.000000 0.525731
vn 0.525731 -0.850651 0.000000
vn 0.850651 0.000000 -0.525731
vn 0.525731 0.850651 -0.000000
vn 0.000000 -0.525731 -0.850651
vn 0.000000 0.525731 -0.850651
vn 0.000000 -0.525731 0.850651
vn 0.000000 0.525731 0.850651
vn -0.850651 0.000000 -0.525731
vn -0.525731 -0.850651 -0.000000
vn -0.850651 0.000000 0.525731
vn -0.525731 0.850651 0.000000
s 1
g pSolid1
usemtl initialShadingGroup
f 2/1/1 10/2/2 1/3/3
f 1/3/3 11/6/4 2/1/1
f 1/25/3 8/26/5 7/27/6
f 1/3/3 7/7/6 11/6/4
f 1/3/3 10/2/2 8/5/5
f 5/29/7 2/30/1 6/31/8
f 10/2/2 2/1/1 5/4/7
f 2/1/1 11/6/4 6/8/8
f 4/9/9 9/10/10 3/11/11
f 3/11/11 12/14/12 4/9/9
f 5/29/7 6/31/8 3/32/11
f 3/11/11 9/10/10 5/13/7
f 6/15/8 12/14/12 3/11/11
f 7/27/6 8/26/5 4/28/9
f 4/9/9 12/14/12 7/16/6
f 4/9/9 8/12/5 9/10/10
f 5/17/7 9/18/10 10/19/2
f 6/21/8 11/22/4 12/23/12
f 7/24/6 12/23/12 11/22/4
f 8/20/5 10/19/2 9/18/10
