# This file uses centimeters as units for non-parametric coordinates.

mtllib 4_sided.mtl
g default
v -0.500000 -0.707107 -0.866025
v -0.500000 -0.707107 0.866025
v 1.000000 -0.707107 -0.000000
v 0.000000 0.707107 0.000000
vt 0.501123 0.000000
vt 0.965967 0.266942
vt 0.501123 0.533884
vt 0.493041 0.266942
vt 0.000000 0.533884
vt 0.000000 0.000000
vt 0.535156 0.537642
vt 1.000000 0.845881
vt 0.535156 1.000000
vt 0.064152 0.845881
vt 0.528996 0.537642
vt 0.528996 1.000000
vn 0.942809 -0.333333 0.000000
vn -0.471405 -0.333333 0.816497
vn -0.471405 -0.333333 -0.816497
vn 0.000000 1.000000 0.000000
s 1
g pSolid1
usemtl initialShadingGroup
f 3/4/1 2/5/2 1/6/3
f 3/7/1 4/8/4 2/9/2
f 4/10/4 3/11/1 1/12/3
f 2/1/2 4/2/4 1/3/3
