# This file uses centimeters as units for non-parametric coordinates.

mtllib frustum.mtl
g default
v -0.499999 -0.499999 0.499999
v 0.500000 -0.500000 0.500000
v -0.233455 0.500000 0.233454
v 0.233454 0.499999 0.233454
v -0.233455 0.500000 -0.233454
v 0.233454 0.499999 -0.233454
v -0.499999 -0.499999 -0.499999
v 0.500000 -0.500000 -0.500000
vt 0.284187 0.665421
vt 0.284187 0.334579
vt 0.639014 0.422764
vt 0.639014 0.577237
vt 0.000000 0.669158
vt 0.354826 0.669158
vt 0.260249 1.000000
vt 0.094577 1.000000
vt 0.362194 0.669158
vt 0.527866 0.669158
vt 0.527866 0.823631
vt 0.362194 0.823631
vt 0.645174 0.334579
vt 1.000000 0.334579
vt 1.000000 0.665421
vt 0.645174 0.665421
vt 0.000000 0.000000
vt 0.354826 0.000000
vt 0.260249 0.330842
vt 0.094577 0.330842
vt 0.456771 0.000000
vt 0.622443 0.000000
vt 0.717020 0.330842
vt 0.362194 0.330842
vn -0.000000 0.257553 0.966264
vn -0.000000 0.257553 0.966264
vn -0.000000 0.257553 0.966264
vn -0.000000 0.257553 0.966264
vn 0.000001 1.000000 0.000000
vn 0.000001 1.000000 0.000000
vn 0.000001 1.000000 0.000000
vn 0.000001 1.000000 0.000000
vn -0.000000 0.257553 -0.966264
vn -0.000000 0.257553 -0.966264
vn -0.000000 0.257553 -0.966264
vn -0.000000 0.257553 -0.966264
vn -0.000001 -1.000000 0.000000
vn -0.000001 -1.000000 0.000000
vn -0.000001 -1.000000 0.000000
vn -0.000001 -1.000000 0.000000
vn 0.966264 0.257554 0.000000
vn 0.966264 0.257554 0.000000
vn 0.966264 0.257554 0.000000
vn 0.966264 0.257554 0.000000
vn -0.966264 0.257553 -0.000000
vn -0.966264 0.257553 -0.000000
vn -0.966264 0.257553 -0.000000
vn -0.966264 0.257553 -0.000000
s off
g pCube1
usemtl initialShadingGroup
f 1/17/1 2/18/2 4/19/3 3/20/4
f 3/9/5 4/10/6 6/11/7 5/12/8
f 5/21/9 6/22/10 8/23/11 7/24/12
f 7/13/13 8/14/14 2/15/15 1/16/16
f 2/1/17 8/2/18 6/3/19 4/4/20
f 7/5/21 1/6/22 3/7/23 5/8/24
